%TF.GenerationSoftware,KiCad,Pcbnew,8.0.1*%
%TF.CreationDate,2024-04-08T12:52:58-05:00*%
%TF.ProjectId,BSidesKC24-L2S,42536964-6573-44b4-9332-342d4c32532e,rev?*%
%TF.SameCoordinates,Original*%
%TF.FileFunction,Copper,L2,Bot*%
%TF.FilePolarity,Positive*%
%FSLAX46Y46*%
G04 Gerber Fmt 4.6, Leading zero omitted, Abs format (unit mm)*
G04 Created by KiCad (PCBNEW 8.0.1) date 2024-04-08 12:52:58*
%MOMM*%
%LPD*%
G01*
G04 APERTURE LIST*
%TA.AperFunction,EtchedComponent*%
%ADD10C,0.010000*%
%TD*%
%TA.AperFunction,SMDPad,CuDef*%
%ADD11R,2.000000X2.500000*%
%TD*%
%TA.AperFunction,ComponentPad*%
%ADD12R,1.500000X1.500000*%
%TD*%
%TA.AperFunction,ComponentPad*%
%ADD13C,1.600000*%
%TD*%
%TA.AperFunction,SMDPad,CuDef*%
%ADD14R,3.857800X5.472400*%
%TD*%
%TA.AperFunction,SMDPad,CuDef*%
%ADD15R,3.908600X5.523200*%
%TD*%
%TA.AperFunction,SMDPad,CuDef*%
%ADD16C,16.459512*%
%TD*%
%TA.AperFunction,ViaPad*%
%ADD17C,4.000000*%
%TD*%
%TA.AperFunction,Conductor*%
%ADD18C,0.250000*%
%TD*%
G04 APERTURE END LIST*
D10*
%TO.C,G\u002A\u002A\u002A*%
X91478588Y-53747751D02*
X92732778Y-53747756D01*
X93946007Y-53747765D01*
X95118960Y-53747779D01*
X96252324Y-53747799D01*
X97346784Y-53747827D01*
X98403027Y-53747862D01*
X99421738Y-53747907D01*
X100403603Y-53747961D01*
X101349308Y-53748027D01*
X102259540Y-53748104D01*
X103134984Y-53748195D01*
X103976325Y-53748299D01*
X104784251Y-53748418D01*
X105559447Y-53748553D01*
X106302599Y-53748705D01*
X107014392Y-53748875D01*
X107695513Y-53749063D01*
X108346649Y-53749271D01*
X108968483Y-53749499D01*
X109561704Y-53749749D01*
X110126996Y-53750022D01*
X110665046Y-53750318D01*
X111176539Y-53750638D01*
X111662161Y-53750984D01*
X112122599Y-53751357D01*
X112558539Y-53751756D01*
X112970665Y-53752184D01*
X113359665Y-53752642D01*
X113726225Y-53753129D01*
X114071029Y-53753648D01*
X114394764Y-53754199D01*
X114698117Y-53754783D01*
X114981773Y-53755401D01*
X115246417Y-53756054D01*
X115492736Y-53756743D01*
X115721417Y-53757470D01*
X115933144Y-53758234D01*
X116128604Y-53759037D01*
X116308482Y-53759880D01*
X116473466Y-53760763D01*
X116624239Y-53761689D01*
X116761490Y-53762657D01*
X116885903Y-53763669D01*
X116998164Y-53764726D01*
X117098960Y-53765828D01*
X117188976Y-53766977D01*
X117268899Y-53768174D01*
X117339413Y-53769419D01*
X117401206Y-53770714D01*
X117454963Y-53772059D01*
X117501371Y-53773455D01*
X117541114Y-53774904D01*
X117574879Y-53776406D01*
X117603352Y-53777963D01*
X117627220Y-53779574D01*
X117647167Y-53781242D01*
X117663879Y-53782968D01*
X117678044Y-53784751D01*
X117688834Y-53786351D01*
X118167493Y-53882410D01*
X118625719Y-54015515D01*
X119063422Y-54185619D01*
X119480514Y-54392678D01*
X119876906Y-54636648D01*
X120252508Y-54917483D01*
X120607233Y-55235139D01*
X120663599Y-55290937D01*
X120769770Y-55400367D01*
X120878438Y-55517363D01*
X120980921Y-55632233D01*
X121068540Y-55735288D01*
X121122432Y-55803151D01*
X121393055Y-56194307D01*
X121625079Y-56600997D01*
X121819205Y-57024888D01*
X121976133Y-57467644D01*
X122096563Y-57930929D01*
X122159286Y-58266834D01*
X122207917Y-58573750D01*
X122207917Y-148468584D01*
X122158427Y-148775500D01*
X122060900Y-149258372D01*
X121927600Y-149718684D01*
X121758348Y-150156792D01*
X121552963Y-150573053D01*
X121311268Y-150967827D01*
X121033081Y-151341468D01*
X120718223Y-151694336D01*
X120663327Y-151749994D01*
X120316936Y-152068816D01*
X119951646Y-152350956D01*
X119566110Y-152597100D01*
X119158984Y-152807936D01*
X118728918Y-152984151D01*
X118274566Y-153126430D01*
X117794583Y-153235461D01*
X117725068Y-153248146D01*
X117466584Y-153293946D01*
X90299167Y-153296492D01*
X89226196Y-153296580D01*
X88163165Y-153296644D01*
X87110869Y-153296683D01*
X86070108Y-153296698D01*
X85041680Y-153296689D01*
X84026382Y-153296657D01*
X83025012Y-153296602D01*
X82038369Y-153296524D01*
X81067251Y-153296425D01*
X80112454Y-153296303D01*
X79174779Y-153296160D01*
X78255021Y-153295996D01*
X77353981Y-153295811D01*
X76472454Y-153295606D01*
X75611240Y-153295381D01*
X74771136Y-153295137D01*
X73952941Y-153294873D01*
X73157452Y-153294591D01*
X72385468Y-153294290D01*
X71637786Y-153293971D01*
X70915204Y-153293635D01*
X70218521Y-153293282D01*
X69548534Y-153292911D01*
X68906041Y-153292524D01*
X68291841Y-153292121D01*
X67706731Y-153291703D01*
X67151509Y-153291268D01*
X66626974Y-153290819D01*
X66133923Y-153290356D01*
X65673154Y-153289878D01*
X65245466Y-153289387D01*
X64851656Y-153288882D01*
X64492522Y-153288364D01*
X64168863Y-153287833D01*
X63881475Y-153287290D01*
X63631158Y-153286735D01*
X63418710Y-153286169D01*
X63244927Y-153285591D01*
X63110609Y-153285003D01*
X63016553Y-153284404D01*
X62963557Y-153283796D01*
X62951834Y-153283429D01*
X62493113Y-153222579D01*
X62042461Y-153121029D01*
X61602660Y-152980080D01*
X61176491Y-152801032D01*
X60766735Y-152585187D01*
X60376174Y-152333846D01*
X60007589Y-152048311D01*
X59692418Y-151758655D01*
X59370785Y-151409066D01*
X59085157Y-151037290D01*
X58835730Y-150643715D01*
X58622696Y-150228731D01*
X58446252Y-149792727D01*
X58306591Y-149336092D01*
X58203908Y-148859215D01*
X58185087Y-148743750D01*
X58136417Y-148426250D01*
X58136417Y-58616084D01*
X58729084Y-58616084D01*
X58729084Y-105168098D01*
X58729086Y-106794396D01*
X58729091Y-108379426D01*
X58729098Y-109923723D01*
X58729108Y-111427818D01*
X58729121Y-112892246D01*
X58729138Y-114317540D01*
X58729160Y-115704232D01*
X58729187Y-117052856D01*
X58729219Y-118363944D01*
X58729257Y-119638031D01*
X58729301Y-120875649D01*
X58729351Y-122077331D01*
X58729409Y-123243610D01*
X58729475Y-124375020D01*
X58729548Y-125472093D01*
X58729630Y-126535363D01*
X58729722Y-127565363D01*
X58729822Y-128562626D01*
X58729933Y-129527685D01*
X58730054Y-130461073D01*
X58730186Y-131363324D01*
X58730329Y-132234970D01*
X58730484Y-133076545D01*
X58730651Y-133888581D01*
X58730831Y-134671613D01*
X58731024Y-135426172D01*
X58731231Y-136152793D01*
X58731452Y-136852008D01*
X58731688Y-137524350D01*
X58731938Y-138170353D01*
X58732204Y-138790550D01*
X58732486Y-139385473D01*
X58732784Y-139955657D01*
X58733100Y-140501633D01*
X58733432Y-141023936D01*
X58733783Y-141523097D01*
X58734151Y-141999652D01*
X58734539Y-142454132D01*
X58734945Y-142887070D01*
X58735371Y-143299001D01*
X58735818Y-143690456D01*
X58736284Y-144061970D01*
X58736772Y-144414075D01*
X58737282Y-144747304D01*
X58737813Y-145062190D01*
X58738367Y-145359268D01*
X58738944Y-145639069D01*
X58739544Y-145902126D01*
X58740168Y-146148974D01*
X58740816Y-146380145D01*
X58741488Y-146596173D01*
X58742186Y-146797589D01*
X58742910Y-146984928D01*
X58743660Y-147158723D01*
X58744436Y-147319507D01*
X58745240Y-147467812D01*
X58746071Y-147604173D01*
X58746930Y-147729121D01*
X58747817Y-147843191D01*
X58748733Y-147946916D01*
X58749679Y-148040828D01*
X58750654Y-148125460D01*
X58751660Y-148201347D01*
X58752696Y-148269020D01*
X58753764Y-148329014D01*
X58754863Y-148381860D01*
X58755994Y-148428093D01*
X58757158Y-148468246D01*
X58758355Y-148502851D01*
X58759586Y-148532442D01*
X58760851Y-148557551D01*
X58762149Y-148578713D01*
X58763483Y-148596460D01*
X58764853Y-148611324D01*
X58766258Y-148623841D01*
X58767699Y-148634542D01*
X58768206Y-148637917D01*
X58857756Y-149094524D01*
X58982291Y-149527514D01*
X59142198Y-149937669D01*
X59337865Y-150325768D01*
X59569678Y-150692592D01*
X59838027Y-151038920D01*
X60104174Y-151326826D01*
X60434289Y-151627748D01*
X60787758Y-151894518D01*
X61162095Y-152125969D01*
X61554813Y-152320934D01*
X61963423Y-152478245D01*
X62385440Y-152596736D01*
X62818375Y-152675239D01*
X63025917Y-152698077D01*
X63050308Y-152698366D01*
X63116239Y-152698649D01*
X63222914Y-152698925D01*
X63369540Y-152699194D01*
X63555322Y-152699455D01*
X63779466Y-152699709D01*
X64041178Y-152699955D01*
X64339662Y-152700194D01*
X64674126Y-152700424D01*
X65043775Y-152700647D01*
X65447814Y-152700861D01*
X65885450Y-152701067D01*
X66355887Y-152701264D01*
X66858332Y-152701453D01*
X67391991Y-152701634D01*
X67956068Y-152701805D01*
X68549770Y-152701967D01*
X69172303Y-152702121D01*
X69822872Y-152702265D01*
X70500683Y-152702399D01*
X71204941Y-152702525D01*
X71934853Y-152702640D01*
X72689624Y-152702746D01*
X73468460Y-152702841D01*
X74270566Y-152702927D01*
X75095149Y-152703002D01*
X75941413Y-152703067D01*
X76808565Y-152703122D01*
X77695811Y-152703166D01*
X78602355Y-152703199D01*
X79527405Y-152703221D01*
X80470165Y-152703232D01*
X81429841Y-152703232D01*
X82405639Y-152703221D01*
X83396765Y-152703199D01*
X84402424Y-152703164D01*
X85421823Y-152703118D01*
X86454166Y-152703060D01*
X87498659Y-152702991D01*
X88554509Y-152702909D01*
X89620921Y-152702815D01*
X90278000Y-152702751D01*
X117445417Y-152700028D01*
X117678250Y-152655594D01*
X118062217Y-152570773D01*
X118413356Y-152468552D01*
X118738322Y-152346793D01*
X118969417Y-152241099D01*
X119299154Y-152064084D01*
X119598768Y-151872672D01*
X119879674Y-151658663D01*
X120153289Y-151413859D01*
X120241023Y-151327826D01*
X120543720Y-150997028D01*
X120808928Y-150647522D01*
X121037122Y-150278361D01*
X121228778Y-149888598D01*
X121384372Y-149477286D01*
X121504381Y-149043477D01*
X121576668Y-148669667D01*
X121578101Y-148659744D01*
X121579499Y-148647939D01*
X121580861Y-148633720D01*
X121582189Y-148616554D01*
X121583481Y-148595908D01*
X121584740Y-148571251D01*
X121585965Y-148542048D01*
X121587157Y-148507769D01*
X121588316Y-148467880D01*
X121589443Y-148421849D01*
X121590538Y-148369143D01*
X121591601Y-148309229D01*
X121592634Y-148241577D01*
X121593636Y-148165651D01*
X121594609Y-148080921D01*
X121595551Y-147986854D01*
X121596465Y-147882917D01*
X121597350Y-147768577D01*
X121598207Y-147643303D01*
X121599036Y-147506561D01*
X121599837Y-147357819D01*
X121600612Y-147196544D01*
X121601361Y-147022205D01*
X121602084Y-146834268D01*
X121602781Y-146632201D01*
X121603453Y-146415471D01*
X121604101Y-146183546D01*
X121604725Y-145935893D01*
X121605325Y-145671981D01*
X121605901Y-145391275D01*
X121606456Y-145093244D01*
X121606987Y-144777356D01*
X121607497Y-144443077D01*
X121607986Y-144089875D01*
X121608454Y-143717218D01*
X121608901Y-143324573D01*
X121609328Y-142911407D01*
X121609736Y-142477189D01*
X121610125Y-142021385D01*
X121610495Y-141543463D01*
X121610847Y-141042890D01*
X121611181Y-140519134D01*
X121611498Y-139971663D01*
X121611798Y-139399944D01*
X121612082Y-138803444D01*
X121612350Y-138181630D01*
X121612602Y-137533971D01*
X121612839Y-136859934D01*
X121613062Y-136158986D01*
X121613271Y-135430595D01*
X121613466Y-134674228D01*
X121613648Y-133889352D01*
X121613818Y-133075436D01*
X121613975Y-132231946D01*
X121614120Y-131358350D01*
X121614254Y-130454115D01*
X121614377Y-129518710D01*
X121614489Y-128551601D01*
X121614592Y-127552256D01*
X121614685Y-126520143D01*
X121614769Y-125454728D01*
X121614844Y-124355480D01*
X121614912Y-123221865D01*
X121614971Y-122053352D01*
X121615023Y-120849408D01*
X121615069Y-119609499D01*
X121615108Y-118333095D01*
X121615141Y-117019661D01*
X121615169Y-115668667D01*
X121615192Y-114279578D01*
X121615210Y-112851863D01*
X121615224Y-111384989D01*
X121615235Y-109878424D01*
X121615242Y-108331634D01*
X121615247Y-106744088D01*
X121615249Y-105115253D01*
X121615250Y-103510584D01*
X121615249Y-101841772D01*
X121615247Y-100214761D01*
X121615243Y-98629019D01*
X121615235Y-97084012D01*
X121615225Y-95579208D01*
X121615211Y-94114075D01*
X121615193Y-92688079D01*
X121615171Y-91300689D01*
X121615144Y-89951372D01*
X121615112Y-88639595D01*
X121615073Y-87364825D01*
X121615028Y-86126531D01*
X121614977Y-84924179D01*
X121614918Y-83757238D01*
X121614852Y-82625173D01*
X121614778Y-81527454D01*
X121614695Y-80463546D01*
X121614603Y-79432919D01*
X121614501Y-78435038D01*
X121614390Y-77469373D01*
X121614268Y-76535389D01*
X121614135Y-75632554D01*
X121613991Y-74760337D01*
X121613835Y-73918203D01*
X121613667Y-73105622D01*
X121613486Y-72322059D01*
X121613292Y-71566984D01*
X121613084Y-70839862D01*
X121612863Y-70140161D01*
X121612626Y-69467350D01*
X121612375Y-68820895D01*
X121612108Y-68200264D01*
X121611826Y-67604924D01*
X121611527Y-67034342D01*
X121611211Y-66487987D01*
X121610877Y-65965325D01*
X121610526Y-65465824D01*
X121610157Y-64988951D01*
X121609769Y-64534174D01*
X121609363Y-64100961D01*
X121608936Y-63688778D01*
X121608489Y-63297093D01*
X121608022Y-62925373D01*
X121607534Y-62573087D01*
X121607025Y-62239701D01*
X121606493Y-61924683D01*
X121605940Y-61627500D01*
X121605363Y-61347620D01*
X121604763Y-61084510D01*
X121604140Y-60837637D01*
X121603492Y-60606470D01*
X121602820Y-60390475D01*
X121602122Y-60189120D01*
X121601399Y-60001872D01*
X121600650Y-59828198D01*
X121599875Y-59667567D01*
X121599073Y-59519446D01*
X121598243Y-59383302D01*
X121597385Y-59258602D01*
X121596499Y-59144813D01*
X121595585Y-59041405D01*
X121594641Y-58947843D01*
X121593667Y-58863595D01*
X121592663Y-58788129D01*
X121591629Y-58720912D01*
X121590564Y-58661411D01*
X121589467Y-58609094D01*
X121588338Y-58563429D01*
X121587177Y-58523883D01*
X121585983Y-58489922D01*
X121584755Y-58461016D01*
X121583494Y-58436630D01*
X121582198Y-58416233D01*
X121580868Y-58399292D01*
X121579502Y-58385274D01*
X121578101Y-58373647D01*
X121576664Y-58363879D01*
X121576369Y-58362084D01*
X121483425Y-57912057D01*
X121358963Y-57488905D01*
X121201938Y-57090115D01*
X121011308Y-56713177D01*
X120786028Y-56355580D01*
X120682742Y-56213094D01*
X120393414Y-55862380D01*
X120080542Y-55546832D01*
X119744096Y-55266431D01*
X119384047Y-55021161D01*
X119000368Y-54811004D01*
X118593028Y-54635944D01*
X118162000Y-54495964D01*
X117707255Y-54391046D01*
X117567661Y-54366642D01*
X117276084Y-54319250D01*
X63089417Y-54319250D01*
X62785548Y-54366527D01*
X62333695Y-54455766D01*
X61905973Y-54579462D01*
X61500923Y-54738348D01*
X61117089Y-54933157D01*
X60753012Y-55164622D01*
X60407235Y-55433475D01*
X60103989Y-55714512D01*
X59803696Y-56042633D01*
X59541146Y-56387397D01*
X59315403Y-56750648D01*
X59125534Y-57134229D01*
X58970606Y-57539981D01*
X58849686Y-57969747D01*
X58776479Y-58334033D01*
X58729084Y-58616084D01*
X58136417Y-58616084D01*
X58136417Y-58594917D01*
X58185742Y-58288000D01*
X58281622Y-57805787D01*
X58410491Y-57349444D01*
X58573183Y-56917305D01*
X58770533Y-56507705D01*
X59003375Y-56118978D01*
X59272545Y-55749457D01*
X59578877Y-55397476D01*
X59692616Y-55280528D01*
X60042755Y-54959453D01*
X60415188Y-54674265D01*
X60809161Y-54425344D01*
X61223920Y-54213068D01*
X61658712Y-54037816D01*
X62112782Y-53899967D01*
X62585376Y-53799899D01*
X62666084Y-53786891D01*
X62678969Y-53785031D01*
X62693548Y-53783231D01*
X62710509Y-53781489D01*
X62730538Y-53779806D01*
X62754322Y-53778179D01*
X62782546Y-53776609D01*
X62815898Y-53775093D01*
X62855063Y-53773631D01*
X62900730Y-53772222D01*
X62953584Y-53770865D01*
X63014312Y-53769560D01*
X63083600Y-53768304D01*
X63162136Y-53767097D01*
X63250605Y-53765939D01*
X63349694Y-53764827D01*
X63460090Y-53763762D01*
X63582479Y-53762742D01*
X63717549Y-53761766D01*
X63865985Y-53760833D01*
X64028474Y-53759943D01*
X64205702Y-53759094D01*
X64398357Y-53758285D01*
X64607125Y-53757515D01*
X64832693Y-53756784D01*
X65075746Y-53756090D01*
X65336972Y-53755432D01*
X65617057Y-53754810D01*
X65916688Y-53754223D01*
X66236552Y-53753668D01*
X66577334Y-53753147D01*
X66939722Y-53752656D01*
X67324402Y-53752197D01*
X67732061Y-53751766D01*
X68163385Y-53751365D01*
X68619061Y-53750991D01*
X69099775Y-53750643D01*
X69606214Y-53750321D01*
X70139065Y-53750024D01*
X70699014Y-53749751D01*
X71286748Y-53749500D01*
X71902953Y-53749271D01*
X72548316Y-53749063D01*
X73223524Y-53748874D01*
X73929263Y-53748705D01*
X74666219Y-53748553D01*
X75435080Y-53748418D01*
X76236531Y-53748299D01*
X77071260Y-53748195D01*
X77939953Y-53748104D01*
X78843297Y-53748027D01*
X79781977Y-53747962D01*
X80756682Y-53747907D01*
X81768097Y-53747863D01*
X82816908Y-53747827D01*
X83903804Y-53747800D01*
X85029469Y-53747780D01*
X86194591Y-53747766D01*
X87399856Y-53747757D01*
X88645951Y-53747752D01*
X89933563Y-53747750D01*
X90182750Y-53747750D01*
X91478588Y-53747751D01*
%TA.AperFunction,EtchedComponent*%
G36*
X91478588Y-53747751D02*
G01*
X92732778Y-53747756D01*
X93946007Y-53747765D01*
X95118960Y-53747779D01*
X96252324Y-53747799D01*
X97346784Y-53747827D01*
X98403027Y-53747862D01*
X99421738Y-53747907D01*
X100403603Y-53747961D01*
X101349308Y-53748027D01*
X102259540Y-53748104D01*
X103134984Y-53748195D01*
X103976325Y-53748299D01*
X104784251Y-53748418D01*
X105559447Y-53748553D01*
X106302599Y-53748705D01*
X107014392Y-53748875D01*
X107695513Y-53749063D01*
X108346649Y-53749271D01*
X108968483Y-53749499D01*
X109561704Y-53749749D01*
X110126996Y-53750022D01*
X110665046Y-53750318D01*
X111176539Y-53750638D01*
X111662161Y-53750984D01*
X112122599Y-53751357D01*
X112558539Y-53751756D01*
X112970665Y-53752184D01*
X113359665Y-53752642D01*
X113726225Y-53753129D01*
X114071029Y-53753648D01*
X114394764Y-53754199D01*
X114698117Y-53754783D01*
X114981773Y-53755401D01*
X115246417Y-53756054D01*
X115492736Y-53756743D01*
X115721417Y-53757470D01*
X115933144Y-53758234D01*
X116128604Y-53759037D01*
X116308482Y-53759880D01*
X116473466Y-53760763D01*
X116624239Y-53761689D01*
X116761490Y-53762657D01*
X116885903Y-53763669D01*
X116998164Y-53764726D01*
X117098960Y-53765828D01*
X117188976Y-53766977D01*
X117268899Y-53768174D01*
X117339413Y-53769419D01*
X117401206Y-53770714D01*
X117454963Y-53772059D01*
X117501371Y-53773455D01*
X117541114Y-53774904D01*
X117574879Y-53776406D01*
X117603352Y-53777963D01*
X117627220Y-53779574D01*
X117647167Y-53781242D01*
X117663879Y-53782968D01*
X117678044Y-53784751D01*
X117688834Y-53786351D01*
X118167493Y-53882410D01*
X118625719Y-54015515D01*
X119063422Y-54185619D01*
X119480514Y-54392678D01*
X119876906Y-54636648D01*
X120252508Y-54917483D01*
X120607233Y-55235139D01*
X120663599Y-55290937D01*
X120769770Y-55400367D01*
X120878438Y-55517363D01*
X120980921Y-55632233D01*
X121068540Y-55735288D01*
X121122432Y-55803151D01*
X121393055Y-56194307D01*
X121625079Y-56600997D01*
X121819205Y-57024888D01*
X121976133Y-57467644D01*
X122096563Y-57930929D01*
X122159286Y-58266834D01*
X122207917Y-58573750D01*
X122207917Y-148468584D01*
X122158427Y-148775500D01*
X122060900Y-149258372D01*
X121927600Y-149718684D01*
X121758348Y-150156792D01*
X121552963Y-150573053D01*
X121311268Y-150967827D01*
X121033081Y-151341468D01*
X120718223Y-151694336D01*
X120663327Y-151749994D01*
X120316936Y-152068816D01*
X119951646Y-152350956D01*
X119566110Y-152597100D01*
X119158984Y-152807936D01*
X118728918Y-152984151D01*
X118274566Y-153126430D01*
X117794583Y-153235461D01*
X117725068Y-153248146D01*
X117466584Y-153293946D01*
X90299167Y-153296492D01*
X89226196Y-153296580D01*
X88163165Y-153296644D01*
X87110869Y-153296683D01*
X86070108Y-153296698D01*
X85041680Y-153296689D01*
X84026382Y-153296657D01*
X83025012Y-153296602D01*
X82038369Y-153296524D01*
X81067251Y-153296425D01*
X80112454Y-153296303D01*
X79174779Y-153296160D01*
X78255021Y-153295996D01*
X77353981Y-153295811D01*
X76472454Y-153295606D01*
X75611240Y-153295381D01*
X74771136Y-153295137D01*
X73952941Y-153294873D01*
X73157452Y-153294591D01*
X72385468Y-153294290D01*
X71637786Y-153293971D01*
X70915204Y-153293635D01*
X70218521Y-153293282D01*
X69548534Y-153292911D01*
X68906041Y-153292524D01*
X68291841Y-153292121D01*
X67706731Y-153291703D01*
X67151509Y-153291268D01*
X66626974Y-153290819D01*
X66133923Y-153290356D01*
X65673154Y-153289878D01*
X65245466Y-153289387D01*
X64851656Y-153288882D01*
X64492522Y-153288364D01*
X64168863Y-153287833D01*
X63881475Y-153287290D01*
X63631158Y-153286735D01*
X63418710Y-153286169D01*
X63244927Y-153285591D01*
X63110609Y-153285003D01*
X63016553Y-153284404D01*
X62963557Y-153283796D01*
X62951834Y-153283429D01*
X62493113Y-153222579D01*
X62042461Y-153121029D01*
X61602660Y-152980080D01*
X61176491Y-152801032D01*
X60766735Y-152585187D01*
X60376174Y-152333846D01*
X60007589Y-152048311D01*
X59692418Y-151758655D01*
X59370785Y-151409066D01*
X59085157Y-151037290D01*
X58835730Y-150643715D01*
X58622696Y-150228731D01*
X58446252Y-149792727D01*
X58306591Y-149336092D01*
X58203908Y-148859215D01*
X58185087Y-148743750D01*
X58136417Y-148426250D01*
X58136417Y-58616084D01*
X58729084Y-58616084D01*
X58729084Y-105168098D01*
X58729086Y-106794396D01*
X58729091Y-108379426D01*
X58729098Y-109923723D01*
X58729108Y-111427818D01*
X58729121Y-112892246D01*
X58729138Y-114317540D01*
X58729160Y-115704232D01*
X58729187Y-117052856D01*
X58729219Y-118363944D01*
X58729257Y-119638031D01*
X58729301Y-120875649D01*
X58729351Y-122077331D01*
X58729409Y-123243610D01*
X58729475Y-124375020D01*
X58729548Y-125472093D01*
X58729630Y-126535363D01*
X58729722Y-127565363D01*
X58729822Y-128562626D01*
X58729933Y-129527685D01*
X58730054Y-130461073D01*
X58730186Y-131363324D01*
X58730329Y-132234970D01*
X58730484Y-133076545D01*
X58730651Y-133888581D01*
X58730831Y-134671613D01*
X58731024Y-135426172D01*
X58731231Y-136152793D01*
X58731452Y-136852008D01*
X58731688Y-137524350D01*
X58731938Y-138170353D01*
X58732204Y-138790550D01*
X58732486Y-139385473D01*
X58732784Y-139955657D01*
X58733100Y-140501633D01*
X58733432Y-141023936D01*
X58733783Y-141523097D01*
X58734151Y-141999652D01*
X58734539Y-142454132D01*
X58734945Y-142887070D01*
X58735371Y-143299001D01*
X58735818Y-143690456D01*
X58736284Y-144061970D01*
X58736772Y-144414075D01*
X58737282Y-144747304D01*
X58737813Y-145062190D01*
X58738367Y-145359268D01*
X58738944Y-145639069D01*
X58739544Y-145902126D01*
X58740168Y-146148974D01*
X58740816Y-146380145D01*
X58741488Y-146596173D01*
X58742186Y-146797589D01*
X58742910Y-146984928D01*
X58743660Y-147158723D01*
X58744436Y-147319507D01*
X58745240Y-147467812D01*
X58746071Y-147604173D01*
X58746930Y-147729121D01*
X58747817Y-147843191D01*
X58748733Y-147946916D01*
X58749679Y-148040828D01*
X58750654Y-148125460D01*
X58751660Y-148201347D01*
X58752696Y-148269020D01*
X58753764Y-148329014D01*
X58754863Y-148381860D01*
X58755994Y-148428093D01*
X58757158Y-148468246D01*
X58758355Y-148502851D01*
X58759586Y-148532442D01*
X58760851Y-148557551D01*
X58762149Y-148578713D01*
X58763483Y-148596460D01*
X58764853Y-148611324D01*
X58766258Y-148623841D01*
X58767699Y-148634542D01*
X58768206Y-148637917D01*
X58857756Y-149094524D01*
X58982291Y-149527514D01*
X59142198Y-149937669D01*
X59337865Y-150325768D01*
X59569678Y-150692592D01*
X59838027Y-151038920D01*
X60104174Y-151326826D01*
X60434289Y-151627748D01*
X60787758Y-151894518D01*
X61162095Y-152125969D01*
X61554813Y-152320934D01*
X61963423Y-152478245D01*
X62385440Y-152596736D01*
X62818375Y-152675239D01*
X63025917Y-152698077D01*
X63050308Y-152698366D01*
X63116239Y-152698649D01*
X63222914Y-152698925D01*
X63369540Y-152699194D01*
X63555322Y-152699455D01*
X63779466Y-152699709D01*
X64041178Y-152699955D01*
X64339662Y-152700194D01*
X64674126Y-152700424D01*
X65043775Y-152700647D01*
X65447814Y-152700861D01*
X65885450Y-152701067D01*
X66355887Y-152701264D01*
X66858332Y-152701453D01*
X67391991Y-152701634D01*
X67956068Y-152701805D01*
X68549770Y-152701967D01*
X69172303Y-152702121D01*
X69822872Y-152702265D01*
X70500683Y-152702399D01*
X71204941Y-152702525D01*
X71934853Y-152702640D01*
X72689624Y-152702746D01*
X73468460Y-152702841D01*
X74270566Y-152702927D01*
X75095149Y-152703002D01*
X75941413Y-152703067D01*
X76808565Y-152703122D01*
X77695811Y-152703166D01*
X78602355Y-152703199D01*
X79527405Y-152703221D01*
X80470165Y-152703232D01*
X81429841Y-152703232D01*
X82405639Y-152703221D01*
X83396765Y-152703199D01*
X84402424Y-152703164D01*
X85421823Y-152703118D01*
X86454166Y-152703060D01*
X87498659Y-152702991D01*
X88554509Y-152702909D01*
X89620921Y-152702815D01*
X90278000Y-152702751D01*
X117445417Y-152700028D01*
X117678250Y-152655594D01*
X118062217Y-152570773D01*
X118413356Y-152468552D01*
X118738322Y-152346793D01*
X118969417Y-152241099D01*
X119299154Y-152064084D01*
X119598768Y-151872672D01*
X119879674Y-151658663D01*
X120153289Y-151413859D01*
X120241023Y-151327826D01*
X120543720Y-150997028D01*
X120808928Y-150647522D01*
X121037122Y-150278361D01*
X121228778Y-149888598D01*
X121384372Y-149477286D01*
X121504381Y-149043477D01*
X121576668Y-148669667D01*
X121578101Y-148659744D01*
X121579499Y-148647939D01*
X121580861Y-148633720D01*
X121582189Y-148616554D01*
X121583481Y-148595908D01*
X121584740Y-148571251D01*
X121585965Y-148542048D01*
X121587157Y-148507769D01*
X121588316Y-148467880D01*
X121589443Y-148421849D01*
X121590538Y-148369143D01*
X121591601Y-148309229D01*
X121592634Y-148241577D01*
X121593636Y-148165651D01*
X121594609Y-148080921D01*
X121595551Y-147986854D01*
X121596465Y-147882917D01*
X121597350Y-147768577D01*
X121598207Y-147643303D01*
X121599036Y-147506561D01*
X121599837Y-147357819D01*
X121600612Y-147196544D01*
X121601361Y-147022205D01*
X121602084Y-146834268D01*
X121602781Y-146632201D01*
X121603453Y-146415471D01*
X121604101Y-146183546D01*
X121604725Y-145935893D01*
X121605325Y-145671981D01*
X121605901Y-145391275D01*
X121606456Y-145093244D01*
X121606987Y-144777356D01*
X121607497Y-144443077D01*
X121607986Y-144089875D01*
X121608454Y-143717218D01*
X121608901Y-143324573D01*
X121609328Y-142911407D01*
X121609736Y-142477189D01*
X121610125Y-142021385D01*
X121610495Y-141543463D01*
X121610847Y-141042890D01*
X121611181Y-140519134D01*
X121611498Y-139971663D01*
X121611798Y-139399944D01*
X121612082Y-138803444D01*
X121612350Y-138181630D01*
X121612602Y-137533971D01*
X121612839Y-136859934D01*
X121613062Y-136158986D01*
X121613271Y-135430595D01*
X121613466Y-134674228D01*
X121613648Y-133889352D01*
X121613818Y-133075436D01*
X121613975Y-132231946D01*
X121614120Y-131358350D01*
X121614254Y-130454115D01*
X121614377Y-129518710D01*
X121614489Y-128551601D01*
X121614592Y-127552256D01*
X121614685Y-126520143D01*
X121614769Y-125454728D01*
X121614844Y-124355480D01*
X121614912Y-123221865D01*
X121614971Y-122053352D01*
X121615023Y-120849408D01*
X121615069Y-119609499D01*
X121615108Y-118333095D01*
X121615141Y-117019661D01*
X121615169Y-115668667D01*
X121615192Y-114279578D01*
X121615210Y-112851863D01*
X121615224Y-111384989D01*
X121615235Y-109878424D01*
X121615242Y-108331634D01*
X121615247Y-106744088D01*
X121615249Y-105115253D01*
X121615250Y-103510584D01*
X121615249Y-101841772D01*
X121615247Y-100214761D01*
X121615243Y-98629019D01*
X121615235Y-97084012D01*
X121615225Y-95579208D01*
X121615211Y-94114075D01*
X121615193Y-92688079D01*
X121615171Y-91300689D01*
X121615144Y-89951372D01*
X121615112Y-88639595D01*
X121615073Y-87364825D01*
X121615028Y-86126531D01*
X121614977Y-84924179D01*
X121614918Y-83757238D01*
X121614852Y-82625173D01*
X121614778Y-81527454D01*
X121614695Y-80463546D01*
X121614603Y-79432919D01*
X121614501Y-78435038D01*
X121614390Y-77469373D01*
X121614268Y-76535389D01*
X121614135Y-75632554D01*
X121613991Y-74760337D01*
X121613835Y-73918203D01*
X121613667Y-73105622D01*
X121613486Y-72322059D01*
X121613292Y-71566984D01*
X121613084Y-70839862D01*
X121612863Y-70140161D01*
X121612626Y-69467350D01*
X121612375Y-68820895D01*
X121612108Y-68200264D01*
X121611826Y-67604924D01*
X121611527Y-67034342D01*
X121611211Y-66487987D01*
X121610877Y-65965325D01*
X121610526Y-65465824D01*
X121610157Y-64988951D01*
X121609769Y-64534174D01*
X121609363Y-64100961D01*
X121608936Y-63688778D01*
X121608489Y-63297093D01*
X121608022Y-62925373D01*
X121607534Y-62573087D01*
X121607025Y-62239701D01*
X121606493Y-61924683D01*
X121605940Y-61627500D01*
X121605363Y-61347620D01*
X121604763Y-61084510D01*
X121604140Y-60837637D01*
X121603492Y-60606470D01*
X121602820Y-60390475D01*
X121602122Y-60189120D01*
X121601399Y-60001872D01*
X121600650Y-59828198D01*
X121599875Y-59667567D01*
X121599073Y-59519446D01*
X121598243Y-59383302D01*
X121597385Y-59258602D01*
X121596499Y-59144813D01*
X121595585Y-59041405D01*
X121594641Y-58947843D01*
X121593667Y-58863595D01*
X121592663Y-58788129D01*
X121591629Y-58720912D01*
X121590564Y-58661411D01*
X121589467Y-58609094D01*
X121588338Y-58563429D01*
X121587177Y-58523883D01*
X121585983Y-58489922D01*
X121584755Y-58461016D01*
X121583494Y-58436630D01*
X121582198Y-58416233D01*
X121580868Y-58399292D01*
X121579502Y-58385274D01*
X121578101Y-58373647D01*
X121576664Y-58363879D01*
X121576369Y-58362084D01*
X121483425Y-57912057D01*
X121358963Y-57488905D01*
X121201938Y-57090115D01*
X121011308Y-56713177D01*
X120786028Y-56355580D01*
X120682742Y-56213094D01*
X120393414Y-55862380D01*
X120080542Y-55546832D01*
X119744096Y-55266431D01*
X119384047Y-55021161D01*
X119000368Y-54811004D01*
X118593028Y-54635944D01*
X118162000Y-54495964D01*
X117707255Y-54391046D01*
X117567661Y-54366642D01*
X117276084Y-54319250D01*
X63089417Y-54319250D01*
X62785548Y-54366527D01*
X62333695Y-54455766D01*
X61905973Y-54579462D01*
X61500923Y-54738348D01*
X61117089Y-54933157D01*
X60753012Y-55164622D01*
X60407235Y-55433475D01*
X60103989Y-55714512D01*
X59803696Y-56042633D01*
X59541146Y-56387397D01*
X59315403Y-56750648D01*
X59125534Y-57134229D01*
X58970606Y-57539981D01*
X58849686Y-57969747D01*
X58776479Y-58334033D01*
X58729084Y-58616084D01*
X58136417Y-58616084D01*
X58136417Y-58594917D01*
X58185742Y-58288000D01*
X58281622Y-57805787D01*
X58410491Y-57349444D01*
X58573183Y-56917305D01*
X58770533Y-56507705D01*
X59003375Y-56118978D01*
X59272545Y-55749457D01*
X59578877Y-55397476D01*
X59692616Y-55280528D01*
X60042755Y-54959453D01*
X60415188Y-54674265D01*
X60809161Y-54425344D01*
X61223920Y-54213068D01*
X61658712Y-54037816D01*
X62112782Y-53899967D01*
X62585376Y-53799899D01*
X62666084Y-53786891D01*
X62678969Y-53785031D01*
X62693548Y-53783231D01*
X62710509Y-53781489D01*
X62730538Y-53779806D01*
X62754322Y-53778179D01*
X62782546Y-53776609D01*
X62815898Y-53775093D01*
X62855063Y-53773631D01*
X62900730Y-53772222D01*
X62953584Y-53770865D01*
X63014312Y-53769560D01*
X63083600Y-53768304D01*
X63162136Y-53767097D01*
X63250605Y-53765939D01*
X63349694Y-53764827D01*
X63460090Y-53763762D01*
X63582479Y-53762742D01*
X63717549Y-53761766D01*
X63865985Y-53760833D01*
X64028474Y-53759943D01*
X64205702Y-53759094D01*
X64398357Y-53758285D01*
X64607125Y-53757515D01*
X64832693Y-53756784D01*
X65075746Y-53756090D01*
X65336972Y-53755432D01*
X65617057Y-53754810D01*
X65916688Y-53754223D01*
X66236552Y-53753668D01*
X66577334Y-53753147D01*
X66939722Y-53752656D01*
X67324402Y-53752197D01*
X67732061Y-53751766D01*
X68163385Y-53751365D01*
X68619061Y-53750991D01*
X69099775Y-53750643D01*
X69606214Y-53750321D01*
X70139065Y-53750024D01*
X70699014Y-53749751D01*
X71286748Y-53749500D01*
X71902953Y-53749271D01*
X72548316Y-53749063D01*
X73223524Y-53748874D01*
X73929263Y-53748705D01*
X74666219Y-53748553D01*
X75435080Y-53748418D01*
X76236531Y-53748299D01*
X77071260Y-53748195D01*
X77939953Y-53748104D01*
X78843297Y-53748027D01*
X79781977Y-53747962D01*
X80756682Y-53747907D01*
X81768097Y-53747863D01*
X82816908Y-53747827D01*
X83903804Y-53747800D01*
X85029469Y-53747780D01*
X86194591Y-53747766D01*
X87399856Y-53747757D01*
X88645951Y-53747752D01*
X89933563Y-53747750D01*
X90182750Y-53747750D01*
X91478588Y-53747751D01*
G37*
%TD.AperFunction*%
%TD*%
D11*
%TO.P,D1,1,K*%
%TO.N,GND*%
X97400000Y-105000000D03*
%TO.P,D1,2,A*%
%TO.N,Net-(D1-A)*%
X102000000Y-105000000D03*
%TD*%
D12*
%TO.P,SW1,1,A*%
%TO.N,Net-(BT1-+)*%
X63000000Y-145000000D03*
D13*
%TO.P,SW1,2,B*%
%TO.N,Net-(D1-A)*%
X63000000Y-142460000D03*
%TO.P,SW1,3*%
%TO.N,N/C*%
X63000000Y-147540000D03*
%TD*%
D11*
%TO.P,D2,1,K*%
%TO.N,GND*%
X83000000Y-105500000D03*
%TO.P,D2,2,A*%
%TO.N,Net-(D1-A)*%
X78400000Y-105500000D03*
%TD*%
D14*
%TO.P,BT1,1,+*%
%TO.N,Net-(BT1-+)*%
X103065705Y-137240877D03*
D15*
X79255705Y-137240877D03*
D16*
%TO.P,BT1,2,-*%
%TO.N,GND*%
X91160705Y-137240877D03*
%TD*%
D17*
%TO.N,*%
X90000000Y-58000000D03*
%TD*%
D18*
%TO.N,Net-(BT1-+)*%
X103065705Y-142934295D02*
X103065705Y-137240877D01*
X79255705Y-146744295D02*
X77500000Y-148500000D01*
X102000000Y-134500000D02*
X101320053Y-135179947D01*
X97500000Y-148500000D02*
X103065705Y-142934295D01*
X77500000Y-148500000D02*
X97500000Y-148500000D01*
X77500000Y-148500000D02*
X66500000Y-148500000D01*
X79255705Y-137240877D02*
X79255705Y-146744295D01*
X66500000Y-148500000D02*
X63000000Y-145000000D01*
%TO.N,GND*%
X91000000Y-111000000D02*
X91160705Y-111160705D01*
X91000000Y-110500000D02*
X85500000Y-110500000D01*
X97400000Y-105000000D02*
X97400000Y-107600000D01*
X91160705Y-111160705D02*
X91160705Y-137240877D01*
X94500000Y-110500000D02*
X91000000Y-110500000D01*
X85500000Y-110500000D02*
X83000000Y-108000000D01*
X91000000Y-110500000D02*
X91000000Y-111000000D01*
X83000000Y-108000000D02*
X83000000Y-105500000D01*
X97400000Y-107600000D02*
X94500000Y-110500000D01*
%TO.N,Net-(D1-A)*%
X78400000Y-107100000D02*
X77000000Y-108500000D01*
X78400000Y-105500000D02*
X78400000Y-107100000D01*
X77000000Y-108500000D02*
X70500000Y-108500000D01*
X101000000Y-99500000D02*
X102000000Y-100500000D01*
X63000000Y-142460000D02*
X63000000Y-116000000D01*
X102000000Y-100500000D02*
X102000000Y-105000000D01*
X63000000Y-116000000D02*
X70500000Y-108500000D01*
X79500000Y-99500000D02*
X101000000Y-99500000D01*
X78400000Y-100600000D02*
X79500000Y-99500000D01*
X78400000Y-105500000D02*
X78400000Y-100600000D01*
%TD*%
M02*
