%TF.GenerationSoftware,KiCad,Pcbnew,8.0.1*%
%TF.CreationDate,2024-04-08T12:33:26-05:00*%
%TF.ProjectId,BSidesKC24-L2S,42536964-6573-44b4-9332-342d4c32532e,rev?*%
%TF.SameCoordinates,Original*%
%TF.FileFunction,Profile,NP*%
%FSLAX46Y46*%
G04 Gerber Fmt 4.6, Leading zero omitted, Abs format (unit mm)*
G04 Created by KiCad (PCBNEW 8.0.1) date 2024-04-08 12:33:26*
%MOMM*%
%LPD*%
G01*
G04 APERTURE LIST*
%TA.AperFunction,Profile*%
%ADD10C,0.100000*%
%TD*%
G04 APERTURE END LIST*
D10*
X121822700Y-149018400D02*
X121699600Y-149499600D01*
X120103500Y-55160670D02*
X120459100Y-55483770D01*
X60244900Y-151876700D02*
X59889300Y-151553600D01*
X59278100Y-150812300D02*
X59027500Y-150399000D01*
X121070300Y-150812300D02*
X120782300Y-151198000D01*
X62923300Y-54044487D02*
X63437300Y-54018700D01*
X63437300Y-153018700D02*
X62923300Y-152992900D01*
X58817000Y-149960600D02*
X58648900Y-149499600D01*
X120459100Y-151553600D02*
X120103500Y-151876700D01*
X120103500Y-151876700D02*
X119717800Y-152164800D01*
X61943400Y-54243341D02*
X62424500Y-54120195D01*
X121320900Y-56638440D02*
X121531500Y-57076830D01*
X61044000Y-54622020D02*
X61482400Y-54411443D01*
X121822700Y-58019000D02*
X121898400Y-58517800D01*
X60630700Y-152164800D02*
X60244900Y-151876700D01*
X121070300Y-56225140D02*
X121320900Y-56638440D01*
X61943400Y-152794100D02*
X61482400Y-152626000D01*
X58424200Y-148005600D02*
X58424200Y-59031780D01*
X58648900Y-149499600D02*
X58525700Y-149018400D01*
X117425100Y-54044487D02*
X117923900Y-54120195D01*
X59278100Y-56225140D02*
X59566200Y-55839420D01*
X118866100Y-54411443D02*
X119304500Y-54622020D01*
X63437300Y-54018700D02*
X63437300Y-54018700D01*
X59027500Y-56638440D02*
X59278100Y-56225140D01*
X118405100Y-152794100D02*
X117923900Y-152917200D01*
X119304500Y-54622020D02*
X119717800Y-54872590D01*
X120782300Y-55839420D02*
X121070300Y-56225140D01*
X59889300Y-151553600D02*
X59566200Y-151198000D01*
X121531500Y-149960600D02*
X121320900Y-150399000D01*
X62923300Y-152992900D02*
X62424500Y-152917200D01*
X61482400Y-54411443D02*
X61943400Y-54243341D01*
X117923900Y-152917200D02*
X117425100Y-152992900D01*
X63437300Y-54018700D02*
X116911100Y-54018700D01*
X59027500Y-150399000D02*
X58817000Y-149960600D01*
X117425100Y-152992900D02*
X116911100Y-153018700D01*
X58424200Y-59031780D02*
X58450000Y-58517800D01*
X121320900Y-150399000D02*
X121070300Y-150812300D01*
X61482400Y-152626000D02*
X61044000Y-152415400D01*
X120459100Y-55483770D02*
X120782300Y-55839420D01*
X121924200Y-59031780D02*
X121924200Y-148005600D01*
X60630700Y-54872590D02*
X61044000Y-54622020D01*
X121699600Y-57537850D02*
X121822700Y-58019000D01*
X119717800Y-54872590D02*
X120103500Y-55160670D01*
X58525700Y-149018400D02*
X58450000Y-148519600D01*
X59889300Y-55483770D02*
X60244900Y-55160670D01*
X60244900Y-55160670D02*
X60630700Y-54872590D01*
X58525700Y-58019000D02*
X58648900Y-57537850D01*
X119717800Y-152164800D02*
X119304500Y-152415400D01*
X117923900Y-54120195D02*
X118405100Y-54243341D01*
X58648900Y-57537850D02*
X58817000Y-57076830D01*
X118866100Y-152626000D02*
X118405100Y-152794100D01*
X61044000Y-152415400D02*
X60630700Y-152164800D01*
X121924200Y-148005600D02*
X121898400Y-148519600D01*
X119304500Y-152415400D02*
X118866100Y-152626000D01*
X59566200Y-55839420D02*
X59889300Y-55483770D01*
X120782300Y-151198000D02*
X120459100Y-151553600D01*
X121898400Y-58517800D02*
X121924200Y-59031780D01*
X121898400Y-148519600D02*
X121822700Y-149018400D01*
X62424500Y-152917200D02*
X61943400Y-152794100D01*
X58450000Y-148519600D02*
X58424200Y-148005600D01*
X59566200Y-151198000D02*
X59278100Y-150812300D01*
X58817000Y-57076830D02*
X59027500Y-56638440D01*
X62424500Y-54120195D02*
X62923300Y-54044487D01*
X58450000Y-58517800D02*
X58525700Y-58019000D01*
X116911100Y-153018700D02*
X63437300Y-153018700D01*
X63437300Y-54018700D02*
X63437300Y-54018700D01*
X121531500Y-57076830D02*
X121699600Y-57537850D01*
X118405100Y-54243341D02*
X118866100Y-54411443D01*
X116911100Y-54018700D02*
X117425100Y-54044487D01*
X121699600Y-149499600D02*
X121531500Y-149960600D01*
M02*
