<?xml version="1.0" encoding="UTF-8" standalone="no"?>
<!-- Created with Inkscape (http://www.inkscape.org/) -->

<svg
   width="63.500004mm"
   height="99mm"
   viewBox="0 0 63.500004 99"
   version="1.1"
   id="svg1"
   xml:space="preserve"
   xmlns="http://www.w3.org/2000/svg"
   xmlns:svg="http://www.w3.org/2000/svg"><defs
     id="defs1" /><g
     id="g2"
     style="display:inline"
     transform="translate(-19.9242,-0.51870001)"><path
       id="rect24"
       style="fill:#000000;stroke:none;stroke-width:0.570618"
       d="m 24.9373,0.5187 h 53.4738 l 0.514,0.025787 0.4988,0.075708 0.4812,0.123146 0.461,0.168102 0.4384,0.210577 0.4133,0.25057 0.3857,0.28808 0.3556,0.3231 0.3232,0.35565 0.288,0.38572 0.2506,0.4133 0.2106,0.43839 0.1681,0.46102 0.1231,0.48115 0.0757,0.4988 0.0258,0.51398 V 94.5056 l -0.0258,0.514 -0.0757,0.4988 -0.1231,0.4812 -0.1681,0.461 -0.2106,0.4384 -0.2506,0.4133 -0.288,0.3857 -0.3232,0.3556 -0.3556,0.3231 -0.3857,0.2881 -0.4133,0.2506 -0.4384,0.2106 -0.461,0.1681 -0.4812,0.1231 -0.4988,0.0757 -0.514,0.0258 H 24.9373 L 24.4233,99.4929 23.9245,99.4172 23.4434,99.2941 22.9824,99.126 22.544,98.9154 22.1307,98.6648 21.7449,98.3767 21.3893,98.0536 21.0662,97.698 20.7781,97.3123 20.5275,96.899 20.317,96.4606 20.1489,95.9996 20.0257,95.5184 19.95,95.0196 19.9242,94.5056 V 5.53178 L 19.95,5.0178 20.0257,4.519 20.1489,4.03785 20.317,3.57683 20.5275,3.13844 20.7781,2.72514 21.0662,2.33942 21.3893,1.98377 21.7449,1.66067 22.1307,1.37259 22.544,1.12202 22.9824,0.911443 23.4434,0.743341 23.9245,0.620195 24.4233,0.544487 24.9373,0.5187 v 0" /></g></svg>
